<svg xmlns="http://www.w3.org/2000/svg" width="330.01239mm" height="78.629402mm" viewBox="0 0 330.01239 78.629402"><path d="M0 0h1.652v-4.201h.042c.215.352.445.679.662.99L4.741 0h2.061L3.659-3.89l3.346-5.242H5.053L2.466-4.947l-.814-.975v-3.21H0Z" style="fill:#64574b;fill-opacity:1;fill-rule:nonzero;stroke:none" transform="matrix(1.89752 0 0 -1.89752 99.245 54.976)"/><path d="M0 0c0-1.275.625-2.236 1.641-2.236.951 0 1.613.934 1.613 2.262 0 1.03-.462 2.207-1.601 2.207C.475 2.233 0 1.096 0 0m4.974.066c0-2.425-1.706-3.508-3.387-3.508-1.869 0-3.305 1.288-3.305 3.4 0 2.167 1.422 3.495 3.412 3.495 1.965 0 3.28-1.381 3.28-3.387" style="fill:#64574b;fill-opacity:1;fill-rule:nonzero;stroke:none" transform="matrix(1.89752 0 0 -1.89752 115.795 66.055)"/><path d="M0 0c0 .895-.014 1.53-.054 2.127h1.45l.052-1.26h.055c.325.933 1.098 1.408 1.803 1.408.162 0 .257-.012.391-.039V.664a2.24 2.24 0 0 1-.486.054c-.8 0-1.341-.515-1.492-1.26a3.07 3.07 0 0 1-.053-.515v-3.414H0Z" style="fill:#64574b;fill-opacity:1;fill-rule:nonzero;stroke:none" transform="matrix(1.89752 0 0 -1.89752 127.595 63.822)"/><path d="M0 0c.014.611-.257 1.615-1.368 1.615-1.03 0-1.463-.937-1.531-1.615Zm-2.899-1.165c.041-1.192.976-1.706 2.031-1.706.772 0 1.329.109 1.831.298l.243-1.152c-.569-.23-1.355-.419-2.303-.419-2.139 0-3.402 1.326-3.402 3.346 0 1.829 1.113 3.548 3.225 3.548C.881 2.75 1.572.989 1.572-.46c0-.312-.027-.554-.055-.705z" style="fill:#64574b;fill-opacity:1;fill-rule:nonzero;stroke:none" transform="matrix(1.89752 0 0 -1.89752 144.124 64.723)"/><path d="M0 0c-1.179.028-2.303-.229-2.303-1.232 0-.649.419-.948.948-.948.663 0 1.152.432 1.299.907.042.122.056.258.056.366Zm1.624-1.638c0-.596.027-1.18.097-1.586H.216l-.107.733H.066c-.407-.516-1.098-.881-1.95-.881-1.326 0-2.074.961-2.074 1.964 0 1.667 1.479 2.506 3.918 2.492v.109c0 .433-.177 1.152-1.342 1.152-.653 0-1.329-.203-1.775-.488l-.326 1.083c.489.298 1.342.582 2.385.582 2.114 0 2.722-1.339 2.722-2.776z" style="fill:#64574b;fill-opacity:1;fill-rule:nonzero;stroke:none" transform="matrix(1.89752 0 0 -1.89752 156.158 66.188)"/><path d="M0 0c0 .759-.015 1.396-.057 1.965h1.464l.08-.988h.043c.282.513 1.002 1.136 2.101 1.136 1.15 0 2.342-.744 2.342-2.83v-3.916H4.309v3.725c0 .95-.356 1.667-1.26 1.667-.667 0-1.125-.475-1.303-.975-.056-.15-.067-.352-.067-.543v-3.874H0Z" style="fill:#64574b;fill-opacity:1;fill-rule:nonzero;stroke:none" transform="matrix(1.89752 0 0 -1.89752 162.458 63.513)"/><path d="M0 0h.989c1.125 0 1.828.597 1.828 1.504 0 1.002-.703 1.463-1.789 1.463-.528 0-.867-.04-1.028-.082Zm-1.654 4.037c.625.109 1.559.192 2.521.192 1.314 0 2.209-.219 2.821-.734.498-.418.784-1.056.784-1.828 0-1.179-.801-1.979-1.655-2.29v-.042c.651-.242 1.044-.878 1.274-1.761.284-1.137.527-2.193.717-2.546H3.09c-.138.271-.353 1.016-.612 2.155-.256 1.191-.689 1.57-1.641 1.598H0v-3.753h-1.654z" style="fill:#64574b;fill-opacity:1;fill-rule:nonzero;stroke:none" transform="matrix(1.89752 0 0 -1.89752 185.278 62.87)"/><path d="M0 0c.012.611-.259 1.615-1.368 1.615-1.03 0-1.465-.937-1.531-1.615Zm-2.899-1.165c.038-1.192.973-1.706 2.031-1.706.771 0 1.329.109 1.829.298l.244-1.152c-.568-.23-1.355-.419-2.303-.419-2.139 0-3.401 1.326-3.401 3.346 0 1.829 1.111 3.548 3.225 3.548C.88 2.75 1.571.989 1.571-.46c0-.312-.026-.554-.052-.705z" style="fill:#64574b;fill-opacity:1;fill-rule:nonzero;stroke:none" transform="matrix(1.89752 0 0 -1.89752 204.328 64.723)"/><path d="M0 0c-.394-.204-1.259-.419-2.356-.419-2.9 0-4.663 1.828-4.663 4.605 0 3.009 2.088 4.823 4.877 4.823 1.099 0 1.884-.23 2.223-.406l-.366-1.328a4.41 4.41 0 0 1-1.787.353c-1.858 0-3.199-1.166-3.199-3.361 0-2.005 1.178-3.292 3.185-3.292.677 0 1.381.135 1.815.339z" style="fill:#64574b;fill-opacity:1;fill-rule:nonzero;stroke:none" transform="matrix(1.89752 0 0 -1.89752 241.652 71.79)"/><path d="M0 0c0 .895-.013 1.53-.055 2.127h1.451l.052-1.26h.055c.324.933 1.096 1.408 1.801 1.408.163 0 .258-.012.393-.039V.664a2.248 2.248 0 0 1-.486.054c-.798 0-1.343-.515-1.49-1.26a2.692 2.692 0 0 1-.055-.515v-3.414H0Z" style="fill:#64574b;fill-opacity:1;fill-rule:nonzero;stroke:none" transform="matrix(1.89752 0 0 -1.89752 244.222 63.822)"/><path d="M0 0c0-1.275.622-2.236 1.638-2.236.949 0 1.613.934 1.613 2.262 0 1.03-.461 2.207-1.599 2.207C.475 2.233 0 1.096 0 0m4.971.066c0-2.425-1.706-3.508-3.388-3.508-1.867 0-3.303 1.288-3.303 3.4 0 2.167 1.422 3.495 3.412 3.495 1.965 0 3.279-1.381 3.279-3.387" style="fill:#64574b;fill-opacity:1;fill-rule:nonzero;stroke:none" transform="matrix(1.89752 0 0 -1.89752 255.614 66.055)"/><path d="M0 0c.381-.229 1.098-.473 1.694-.473.73 0 1.056.298 1.056.731 0 .448-.271.678-1.084.962C.381 1.667-.161 2.371-.147 3.144c0 1.166.96 2.072 2.491 2.072.73 0 1.369-.189 1.75-.392l-.326-1.178a2.994 2.994 0 0 1-1.395.378c-.598 0-.923-.283-.923-.691 0-.419.313-.623 1.15-.92C3.792 1.979 4.35 1.37 4.361.393c0-1.191-.934-2.072-2.681-2.072-.801 0-1.516.202-2.004.473z" style="fill:#64574b;fill-opacity:1;fill-rule:nonzero;stroke:none" transform="matrix(1.89752 0 0 -1.89752 267.36 69.401)"/><path d="M0 0c.378-.229 1.097-.473 1.693-.473.733 0 1.056.298 1.056.731 0 .448-.27.678-1.082.962C.378 1.667-.162 2.371-.148 3.144c0 1.166.96 2.072 2.492 2.072.732 0 1.369-.189 1.746-.392l-.325-1.178a2.964 2.964 0 0 1-1.393.378c-.599 0-.924-.283-.924-.691 0-.419.312-.623 1.154-.92C3.793 1.979 4.349 1.37 4.361.393c0-1.191-.93-2.072-2.682-2.072-.798 0-1.516.202-2.004.473z" style="fill:#64574b;fill-opacity:1;fill-rule:nonzero;stroke:none" transform="matrix(1.89752 0 0 -1.89752 277.953 69.401)"/><path d="M0 0c0 .136-.01.3-.038.435-.149.65-.678 1.179-1.439 1.179-1.07 0-1.667-.948-1.667-2.182 0-1.206.597-2.086 1.656-2.086.677 0 1.272.461 1.434 1.179.044.15.054.311.054.488Zm1.67 5.772V-1.99c0-.678.027-1.409.053-1.856H.232L.163-2.804H.138c-.393-.73-1.194-1.191-2.155-1.191-1.571 0-2.817 1.341-2.817 3.372C-4.849 1.586-3.467 2.9-1.882 2.9c.908 0 1.56-.379 1.856-.865H0v3.737z" style="fill:#64574b;fill-opacity:1;fill-rule:nonzero;stroke:none" transform="matrix(1.89752 0 0 -1.89752 218.51 65.007)"/><path d="M0 0v-5.295h-2.339V0h-3.049v-12.183h-6.215v9.991h4.438V0h-7.485v-12.788c0-.924.754-1.59 1.573-1.59l7.689.003v-5.402h3.049v12.294H0v-12.294h3.046V0Z" style="fill:#64574b;fill-opacity:1;fill-rule:nonzero;stroke:none" transform="matrix(1.89752 0 0 -1.89752 125.284 9.35)"/><path d="M0 0h-3.047v-6.224A1.58 1.58 0 0 1-1.476-7.81h11.91v2.191H0Z" style="fill:#64574b;fill-opacity:1;fill-rule:nonzero;stroke:none" transform="matrix(1.89752 0 0 -1.89752 150.072 32.057)"/><path d="M0 0h3.047v6.005c0 .921-.755 1.586-1.571 1.586h-12.12v-2.19H0Z" style="fill:#64574b;fill-opacity:1;fill-rule:nonzero;stroke:none" transform="matrix(1.89752 0 0 -1.89752 203.373 46.88)"/><path d="M0 0c0 1.593 1.124 2.878 2.501 2.878 1.381 0 2.503-1.285 2.503-2.878 0-1.586-1.122-2.874-2.503-2.874C1.124-2.874 0-1.586 0 0m7.91 0c0 1.133-.381 2.208-1.03 3.021h1.685v2.191h-4.54v2.064H.979V5.212h-4.538V3.021h1.68A4.906 4.906 0 0 1-2.907 0c0-2.853 2.425-5.163 5.408-5.163C5.488-5.163 7.91-2.853 7.91 0" style="fill:#64574b;fill-opacity:1;fill-rule:nonzero;stroke:none" transform="matrix(1.89752 0 0 -1.89752 143.64 19.236)"/><path d="M0 0v4.25h-3.05V-8.855H0v6.668h2.85V0Z" style="fill:#64574b;fill-opacity:1;fill-rule:nonzero;stroke:none" transform="matrix(1.89752 0 0 -1.89752 169.048 17.414)"/><path d="M0 0v1.498h3.914v2.183H-7.16V1.498h3.908V0c0-2.761-1.818-6.247-4.5-8.111l1.382-1.674s3.141 2.079 4.742 4.635c1.605-2.556 4.745-4.635 4.745-4.635l1.381 1.674C1.814-6.247 0-2.761 0 0" style="fill:#64574b;fill-opacity:1;fill-rule:nonzero;stroke:none" transform="matrix(1.89752 0 0 -1.89752 268.476 16.333)"/><path d="M0 0v4.744h-3.045v-19.776H0v12.841h3.248V0Z" style="fill:#64574b;fill-opacity:1;fill-rule:nonzero;stroke:none" transform="matrix(1.89752 0 0 -1.89752 285.473 18.353)"/><path d="M0 0v2.481h-3.257V0c0-6.121-4.405-9.421-4.405-9.421l1.288-1.563s3.057 1.879 4.748 4.817c1.681-2.938 4.738-4.817 4.738-4.817l1.292 1.563S0-6.121 0 0" style="fill:#64574b;fill-opacity:1;fill-rule:nonzero;stroke:none" transform="matrix(1.89752 0 0 -1.89752 306.655 14.057)"/><path d="M0 0h-3.246v4.744h-3.048v-19.776h3.048v12.841H0Z" style="fill:#64574b;fill-opacity:1;fill-rule:nonzero;stroke:none" transform="matrix(1.89752 0 0 -1.89752 330.012 18.353)"/><path d="M194.518 99.013H181.1V95.2h13.42zm0-11.795v4.122h-13.42v-4.122h-5.773v12.65c0 1.41 1.11 3.001 2.985 3.001h21.986V87.22Z" style="fill:#64574b;fill-opacity:1;fill-rule:nonzero;stroke:none;stroke-width:1.89752" transform="translate(47.21 -55.87)"/><path d="M0 0c1.301-1.887 3.486-3.382 5.056-4.077l1.09 1.516C3.633-1.049 1.628 1.885 1.628 4.932v1.544h-3.254V4.932c0-3.047-2.005-5.981-4.517-7.493l1.091-1.516C-3.481-3.382-1.3-1.887 0 0" style="fill:#64574b;fill-opacity:1;fill-rule:nonzero;stroke:none" transform="matrix(1.89752 0 0 -1.89752 226.283 21.637)"/><path d="M200.28 65.219h-5.785v20.01h5.784z" style="fill:#64574b;fill-opacity:1;fill-rule:nonzero;stroke:none;stroke-width:1.89752" transform="translate(47.21 -55.87)"/><path d="M0 0c1.348-1.708 3.524-3.252 4.904-3.758l1.065 1.517C3.679-.932 1.633 1.176 1.633 3.92v.693h3.719v2.181H-5.335V4.613h3.709V3.92c0-2.744-2.051-4.852-4.332-6.161l1.055-1.517C-3.517-3.252-1.347-1.708 0 0" style="fill:#64574b;fill-opacity:1;fill-rule:nonzero;stroke:none" transform="matrix(1.89752 0 0 -1.89752 187.945 22.242)"/><path d="M0 0v-3.865h-3.446v-2.19H0v-4.952h3.046V0Z" style="fill:#64574b;fill-opacity:1;fill-rule:nonzero;stroke:none" transform="matrix(1.89752 0 0 -1.89752 203.334 9.35)"/><path d="M0 0v13.807h-13.812V0h-13.807v-13.816h13.807v-13.815H0v13.815h13.823V0Z" style="fill:#ed1c24;fill-opacity:1;fill-rule:nonzero;stroke:none" transform="matrix(1.89752 0 0 -1.89752 52.408 26.199)"/></svg>